 http://www.imdb.com/title/tt1352824/

IMDB Rating 6.3

Another re upload of a old dead torrent. All credits to original up loader only.

Please reseed after download. 

My upload speed is only 512 kbps (adsl) so please keep patience.
I will seed the torrent 24x7 for some weeks. 


Chloe.2009.BluRay.1080p.DTS.x264-CHD.mkv
Format                                   : Matroska
Format version                           : Version 1
File size                                : 8.74 GiB
Duration                                 : 1h 36mn
Overall bit rate                         : 13.0 Mbps
Encoded date                             : UTC 2010-05-06 03:04:33
Writing application                      : mkvmerge v2.5.3 ('Boogie') built on Mar  7 2009 15:00:41
Writing library                          : libebml v0.7.7 + libmatroska v0.8.1

Video
ID                                       : 1
Format                                   : AVC
Format/Info                              : Advanced Video Codec
Format profile                           : High@L4.1
Format settings, CABAC                   : Yes
Format settings, ReFrames                : 4 frames
Codec ID                                 : V_MPEG4/ISO/AVC
Duration                                 : 1h 36mn
Bit rate                                 : 11.5 Mbps
Width                                    : 1 920 pixels
Height                                   : 1 080 pixels
Display aspect ratio                     : 16:9
Frame rate                               : 24.000 fps
Color space                              : YUV
Chroma subsampling                       : 4:2:0
Bit depth                                : 8 bits
Scan type                                : Progressive
Bits/(Pixel*Frame)                       : 0.232
Stream size                              : 7.55 GiB (86%)
Title                                    : Chloe.2009.BluRay.1080p.DTS.x264-CHD

Language                                 : English
Default                                  : Yes
Forced                                   : No

Audio
ID                                       : 2
Format                                   : DTS
Format/Info                              : Digital Theater Systems
Codec ID                                 : A_DTS
Duration                                 : 1h 36mn
Bit rate mode                            : Constant
Bit rate                                 : 1 510 Kbps
Channel(s)                               : 6 channels
Channel positions                        : Front: L C R, Side: L R, LFE
Sampling rate                            : 48.0 KHz
Bit depth                                : 24 bits
Compression mode                         : Lossy
Stream size                              : 1.01 GiB (12%)
Title                                    : DTS 5.1CH 1536Kbps
Language                                 : English
Default                                  : Yes
Forced                                   : No

